<?xml version="1.0" encoding="utf-8"?>
<!-- Generator: Adobe Illustrator 24.2.0, SVG Export Plug-In . SVG Version: 6.00 Build 0)  -->
<svg version="1.1" id="Layer_1" xmlns="http://www.w3.org/2000/svg" xmlns:xlink="http://www.w3.org/1999/xlink" x="0px" y="0px"
	 viewBox="0 0 340 340" style="enable-background:new 0 0 144 144;" xml:space="preserve">
<style type="text/css">
	.st0{fill:none;stroke:#000000;stroke-width:0.2835;stroke-miterlimit:10;}
	.st1{fill:none;stroke:#000000;stroke-width:0.2835;}
</style>
<g>
	<path class="st0" d="M105.59,50.29c7.42,8.23,11.93,19.12,11.93,31.07c0,25.64-20.78,46.42-46.42,46.42
		c-25.64,0-46.42-20.78-46.42-46.42S45.47,34.94,71.1,34.94c6.5,0,12.68,1.34,18.3,3.75l3.96-5.77c-6.77-3.12-14.31-4.86-22.25-4.86
		c-29.44,0-53.3,23.87-53.3,53.3s23.87,53.3,53.3,53.3s53.3-23.87,53.3-53.3c0-14.32-5.65-27.31-14.83-36.89L105.59,50.29z"/>
	<g>
		<path class="st0" d="M113.63,7c-9.1,0-16.47,7.37-16.47,16.47c0,9.1,7.37,16.47,16.47,16.47c9.1,0,16.47-7.37,16.47-16.47
			C130.1,14.37,122.72,7,113.63,7z M127.9,22.07h-12.87V9.2C121.83,9.86,127.24,15.27,127.9,22.07z M112.22,9.2v12.87H99.35
			C100.01,15.27,105.42,9.86,112.22,9.2z M99.35,24.88h12.87v12.87C105.42,37.09,100.01,31.68,99.35,24.88z M115.03,37.75V24.88
			h12.87C127.24,31.68,121.83,37.09,115.03,37.75z"/>
		<path class="st0" d="M113.63,39.97c-4.41,0-8.55-1.72-11.67-4.83c-3.12-3.12-4.83-7.26-4.83-11.66s1.72-8.55,4.83-11.67
			c3.12-3.12,7.26-4.83,11.67-4.83s8.55,1.72,11.67,4.83c3.12,3.12,4.83,7.26,4.83,11.67s-1.72,8.55-4.83,11.66
			C122.18,38.25,118.03,39.97,113.63,39.97z M113.63,7.02c-9.07,0-16.45,7.38-16.45,16.45c0,9.07,7.38,16.45,16.45,16.45
			s16.45-7.38,16.45-16.45C130.07,14.4,122.7,7.02,113.63,7.02z M115.01,37.77V24.85h12.92l0,0.03
			c-0.66,6.81-6.08,12.23-12.89,12.89L115.01,37.77z M115.06,24.9v12.82c6.76-0.67,12.14-6.05,12.82-12.82H115.06z M112.25,37.77
			l-0.03,0c-6.81-0.66-12.23-6.08-12.89-12.89l0-0.03h12.92V37.77z M99.38,24.9c0.67,6.76,6.06,12.15,12.82,12.82V24.9H99.38z
			 M127.93,22.09h-12.92V9.17l0.03,0c6.81,0.66,12.23,6.08,12.89,12.89L127.93,22.09z M115.06,22.04h12.82
			c-0.67-6.76-6.06-12.15-12.82-12.82V22.04z M112.25,22.09H99.32l0-0.03c0.66-6.81,6.08-12.23,12.89-12.89l0.03,0V22.09z
			 M99.38,22.04h12.82V9.22C105.43,9.9,100.05,15.28,99.38,22.04z"/>
	</g>
</g>
<g>
	<path class="st1" d="M48,105.76l33.45-45.45v-0.25H50.86V54h40.69v4.4l-33.27,45.28v0.25H92V110H48V105.76z"/>
</g>
</svg>
